<svg id="visual" viewBox="0 0 900 600" width="900" height="600" xmlns="http://www.w3.org/2000/svg" xmlns:xlink="http://www.w3.org/1999/xlink" version="1.1"><g transform="translate(443.79352578967007 287.84422082672813)"><path d="M88.6 -129.3C117.7 -119.1 146.2 -99.4 164.1 -71.6C182.1 -43.7 189.5 -7.7 179.2 21.8C168.9 51.4 140.7 74.5 114.5 92.3C88.3 110 63.9 122.5 34.6 142.2C5.3 161.9 -29.1 188.9 -58.7 186.4C-88.4 183.9 -113.3 151.9 -133.8 120.3C-154.2 88.8 -170.2 57.8 -171.4 26.7C-172.6 -4.3 -159.1 -35.4 -147.8 -70.6C-136.5 -105.7 -127.4 -145 -103.2 -157.4C-78.9 -169.8 -39.5 -155.4 -4.9 -147.8C29.7 -140.3 59.5 -139.5 88.6 -129.3" fill="#5f8081"></path></g></svg>